<mxfile host="Electron" agent="Mozilla/5.0 (Windows NT 10.0; Win64; x64) AppleWebKit/537.36 (KHTML, like Gecko) draw.io/24.7.17 Chrome/128.0.6613.36 Electron/32.0.1 Safari/537.36" version="24.7.17">
  <diagram name="第 1 页" id="5cyh1cvG3kRrgTz52vQq">
    <mxGraphModel dx="1392" dy="837" grid="1" gridSize="10" guides="1" tooltips="1" connect="1" arrows="1" fold="1" page="1" pageScale="1" pageWidth="827" pageHeight="1169" math="0" shadow="0">
      <root>
        <mxCell id="0" />
        <mxCell id="1" parent="0" />
        <mxCell id="16fR_5s0LtTTg5R0e_UU-43" value="堆&lt;div&gt;&lt;br&gt;&lt;/div&gt;&lt;div&gt;&lt;br&gt;&lt;/div&gt;&lt;div&gt;&lt;br&gt;&lt;/div&gt;&lt;div&gt;&lt;br&gt;&lt;/div&gt;&lt;div&gt;&lt;br&gt;&lt;/div&gt;&lt;div&gt;&lt;br&gt;&lt;/div&gt;&lt;div&gt;&lt;br&gt;&lt;/div&gt;" style="rounded=0;whiteSpace=wrap;html=1;fillColor=#FFCC99;" vertex="1" parent="1">
          <mxGeometry x="480" y="245" width="140" height="130" as="geometry" />
        </mxCell>
        <mxCell id="16fR_5s0LtTTg5R0e_UU-1" value="&lt;b&gt;main线程&lt;/b&gt;&lt;div&gt;&lt;b&gt;&lt;br&gt;&lt;/b&gt;&lt;/div&gt;&lt;div&gt;&lt;b&gt;&lt;br&gt;&lt;/b&gt;&lt;/div&gt;&lt;div&gt;&lt;b&gt;&lt;br&gt;&lt;/b&gt;&lt;/div&gt;&lt;div&gt;&lt;b&gt;&lt;br&gt;&lt;/b&gt;&lt;/div&gt;&lt;div&gt;&lt;b&gt;&lt;br&gt;&lt;/b&gt;&lt;/div&gt;&lt;div&gt;&lt;b&gt;&lt;br&gt;&lt;/b&gt;&lt;/div&gt;&lt;div&gt;&lt;b&gt;&lt;br&gt;&lt;/b&gt;&lt;/div&gt;&lt;div&gt;&lt;b&gt;&lt;br&gt;&lt;/b&gt;&lt;/div&gt;&lt;div&gt;&lt;b&gt;&lt;br&gt;&lt;/b&gt;&lt;/div&gt;&lt;div&gt;&lt;b&gt;&lt;br&gt;&lt;/b&gt;&lt;/div&gt;&lt;div&gt;&lt;b&gt;&lt;br&gt;&lt;/b&gt;&lt;/div&gt;&lt;div&gt;&lt;b&gt;&lt;br&gt;&lt;/b&gt;&lt;/div&gt;&lt;div&gt;&lt;b&gt;&lt;br&gt;&lt;/b&gt;&lt;/div&gt;&lt;div&gt;&lt;b&gt;&lt;br&gt;&lt;/b&gt;&lt;/div&gt;&lt;div&gt;&lt;b&gt;&lt;br&gt;&lt;/b&gt;&lt;/div&gt;&lt;div&gt;&lt;b&gt;&lt;br&gt;&lt;/b&gt;&lt;/div&gt;&lt;div&gt;&lt;b&gt;&lt;br&gt;&lt;/b&gt;&lt;/div&gt;&lt;div&gt;&lt;b&gt;&lt;br&gt;&lt;/b&gt;&lt;/div&gt;&lt;div&gt;&lt;b&gt;&lt;br&gt;&lt;/b&gt;&lt;/div&gt;&lt;div&gt;&lt;b&gt;&lt;br&gt;&lt;/b&gt;&lt;/div&gt;&lt;div&gt;&lt;b&gt;&lt;br&gt;&lt;/b&gt;&lt;/div&gt;&lt;div&gt;&lt;b&gt;&lt;br&gt;&lt;/b&gt;&lt;/div&gt;&lt;div&gt;&lt;b&gt;&lt;br&gt;&lt;/b&gt;&lt;/div&gt;&lt;div&gt;&lt;b&gt;&lt;br&gt;&lt;/b&gt;&lt;/div&gt;&lt;div&gt;&lt;b&gt;&lt;br&gt;&lt;/b&gt;&lt;/div&gt;&lt;div&gt;&lt;b&gt;&lt;br&gt;&lt;/b&gt;&lt;/div&gt;&lt;div&gt;&lt;b&gt;&lt;br&gt;&lt;/b&gt;&lt;/div&gt;&lt;div&gt;&lt;b&gt;&lt;br&gt;&lt;/b&gt;&lt;/div&gt;&lt;div&gt;&lt;b&gt;&lt;br&gt;&lt;/b&gt;&lt;/div&gt;&lt;div&gt;&lt;b&gt;&lt;br&gt;&lt;/b&gt;&lt;/div&gt;&lt;div&gt;&lt;b&gt;&lt;br&gt;&lt;/b&gt;&lt;/div&gt;&lt;div&gt;&lt;br&gt;&lt;/div&gt;&lt;div&gt;&lt;br&gt;&lt;/div&gt;&lt;div&gt;&lt;br&gt;&lt;/div&gt;&lt;div&gt;&lt;br&gt;&lt;/div&gt;" style="rounded=0;whiteSpace=wrap;html=1;" vertex="1" parent="1">
          <mxGeometry x="90" y="45" width="180" height="540" as="geometry" />
        </mxCell>
        <mxCell id="16fR_5s0LtTTg5R0e_UU-2" value="程序计数器：&lt;b&gt;N=10&lt;/b&gt;&lt;div&gt;可以理解是javap -c命令下每条汇编前的数字&lt;/div&gt;" style="rounded=0;whiteSpace=wrap;html=1;fillColor=#99CCFF;" vertex="1" parent="1">
          <mxGeometry x="110" y="75" width="140" height="60" as="geometry" />
        </mxCell>
        <mxCell id="16fR_5s0LtTTg5R0e_UU-3" value="线程栈&lt;div&gt;&lt;br&gt;&lt;/div&gt;&lt;div&gt;&lt;br&gt;&lt;/div&gt;&lt;div&gt;&lt;br&gt;&lt;/div&gt;&lt;div&gt;&lt;br&gt;&lt;/div&gt;&lt;div&gt;&lt;br&gt;&lt;/div&gt;&lt;div&gt;&lt;br&gt;&lt;/div&gt;&lt;div&gt;&lt;br&gt;&lt;/div&gt;&lt;div&gt;&lt;br&gt;&lt;/div&gt;&lt;div&gt;&lt;br&gt;&lt;/div&gt;&lt;div&gt;&lt;br&gt;&lt;/div&gt;&lt;div&gt;&lt;br&gt;&lt;/div&gt;&lt;div&gt;&lt;br&gt;&lt;/div&gt;&lt;div&gt;&lt;br&gt;&lt;/div&gt;&lt;div&gt;&lt;br&gt;&lt;/div&gt;&lt;div&gt;&lt;br&gt;&lt;/div&gt;&lt;div&gt;&lt;br&gt;&lt;/div&gt;&lt;div&gt;&lt;br&gt;&lt;/div&gt;&lt;div&gt;&lt;br&gt;&lt;/div&gt;&lt;div&gt;&lt;br&gt;&lt;/div&gt;&lt;div&gt;&lt;br&gt;&lt;/div&gt;&lt;div&gt;&lt;br&gt;&lt;/div&gt;&lt;div&gt;&lt;br&gt;&lt;/div&gt;" style="rounded=0;whiteSpace=wrap;html=1;fillColor=#99CCFF;" vertex="1" parent="1">
          <mxGeometry x="110" y="145" width="140" height="350" as="geometry" />
        </mxCell>
        <mxCell id="16fR_5s0LtTTg5R0e_UU-4" value="本地方法栈" style="rounded=0;whiteSpace=wrap;html=1;fillColor=#99CCFF;" vertex="1" parent="1">
          <mxGeometry x="110" y="505" width="140" height="60" as="geometry" />
        </mxCell>
        <mxCell id="16fR_5s0LtTTg5R0e_UU-5" value="compute(1,2) 栈帧&lt;div&gt;&lt;br&gt;&lt;/div&gt;&lt;div&gt;&lt;br&gt;&lt;/div&gt;&lt;div&gt;&lt;br&gt;&lt;/div&gt;&lt;div&gt;&lt;br&gt;&lt;/div&gt;&lt;div&gt;&lt;br&gt;&lt;/div&gt;&lt;div&gt;&lt;br&gt;&lt;/div&gt;&lt;div&gt;&lt;br&gt;&lt;/div&gt;&lt;div&gt;&lt;br&gt;&lt;/div&gt;&lt;div&gt;&lt;br&gt;&lt;/div&gt;&lt;div&gt;&lt;br&gt;&lt;/div&gt;&lt;div&gt;&lt;br&gt;&lt;/div&gt;" style="rounded=0;whiteSpace=wrap;html=1;fillColor=#CCFFCC;" vertex="1" parent="1">
          <mxGeometry x="120" y="175" width="120" height="190" as="geometry" />
        </mxCell>
        <mxCell id="16fR_5s0LtTTg5R0e_UU-6" value="main() 栈帧&lt;div&gt;&lt;br&gt;&lt;/div&gt;&lt;div&gt;&lt;br&gt;&lt;/div&gt;&lt;div&gt;&lt;br&gt;&lt;/div&gt;&lt;div&gt;&lt;br&gt;&lt;/div&gt;&lt;div&gt;&lt;br&gt;&lt;/div&gt;&lt;div&gt;&lt;br&gt;&lt;/div&gt;" style="rounded=0;whiteSpace=wrap;html=1;fillColor=#CCFFCC;" vertex="1" parent="1">
          <mxGeometry x="120" y="375" width="120" height="110" as="geometry" />
        </mxCell>
        <mxCell id="16fR_5s0LtTTg5R0e_UU-21" style="edgeStyle=orthogonalEdgeStyle;rounded=0;orthogonalLoop=1;jettySize=auto;html=1;exitX=1;exitY=0.5;exitDx=0;exitDy=0;entryX=0;entryY=0.5;entryDx=0;entryDy=0;curved=1;" edge="1" parent="1" source="16fR_5s0LtTTg5R0e_UU-7" target="16fR_5s0LtTTg5R0e_UU-14">
          <mxGeometry relative="1" as="geometry">
            <Array as="points">
              <mxPoint x="280" y="220" />
              <mxPoint x="280" y="133" />
            </Array>
          </mxGeometry>
        </mxCell>
        <mxCell id="16fR_5s0LtTTg5R0e_UU-7" value="局部变量表" style="rounded=0;whiteSpace=wrap;html=1;fillColor=#FFFFCC;" vertex="1" parent="1">
          <mxGeometry x="140" y="205" width="80" height="30" as="geometry" />
        </mxCell>
        <mxCell id="16fR_5s0LtTTg5R0e_UU-38" style="edgeStyle=orthogonalEdgeStyle;rounded=0;orthogonalLoop=1;jettySize=auto;html=1;exitX=1;exitY=0.5;exitDx=0;exitDy=0;entryX=0;entryY=0.5;entryDx=0;entryDy=0;curved=1;" edge="1" parent="1" source="16fR_5s0LtTTg5R0e_UU-8" target="16fR_5s0LtTTg5R0e_UU-22">
          <mxGeometry relative="1" as="geometry">
            <Array as="points">
              <mxPoint x="280" y="260" />
              <mxPoint x="280" y="298" />
            </Array>
          </mxGeometry>
        </mxCell>
        <mxCell id="16fR_5s0LtTTg5R0e_UU-8" value="操作数栈" style="rounded=0;whiteSpace=wrap;html=1;fillColor=#FFFFCC;" vertex="1" parent="1">
          <mxGeometry x="140" y="245" width="80" height="30" as="geometry" />
        </mxCell>
        <mxCell id="16fR_5s0LtTTg5R0e_UU-39" style="edgeStyle=orthogonalEdgeStyle;rounded=0;orthogonalLoop=1;jettySize=auto;html=1;exitX=1;exitY=0.5;exitDx=0;exitDy=0;entryX=0;entryY=0.5;entryDx=0;entryDy=0;curved=1;" edge="1" parent="1" source="16fR_5s0LtTTg5R0e_UU-9" target="16fR_5s0LtTTg5R0e_UU-37">
          <mxGeometry relative="1" as="geometry">
            <Array as="points">
              <mxPoint x="260" y="300" />
              <mxPoint x="260" y="408" />
            </Array>
          </mxGeometry>
        </mxCell>
        <mxCell id="16fR_5s0LtTTg5R0e_UU-9" value="动态链接" style="rounded=0;whiteSpace=wrap;html=1;fillColor=#FFFFCC;" vertex="1" parent="1">
          <mxGeometry x="140" y="285" width="80" height="30" as="geometry" />
        </mxCell>
        <mxCell id="16fR_5s0LtTTg5R0e_UU-35" style="edgeStyle=orthogonalEdgeStyle;rounded=0;orthogonalLoop=1;jettySize=auto;html=1;exitX=0;exitY=0.5;exitDx=0;exitDy=0;entryX=0;entryY=0.5;entryDx=0;entryDy=0;curved=1;" edge="1" parent="1" source="16fR_5s0LtTTg5R0e_UU-10" target="16fR_5s0LtTTg5R0e_UU-6">
          <mxGeometry relative="1" as="geometry">
            <Array as="points">
              <mxPoint x="70" y="340" />
              <mxPoint x="70" y="430" />
            </Array>
          </mxGeometry>
        </mxCell>
        <mxCell id="16fR_5s0LtTTg5R0e_UU-36" value="方法出栈入栈" style="edgeLabel;html=1;align=center;verticalAlign=middle;resizable=0;points=[];" vertex="1" connectable="0" parent="16fR_5s0LtTTg5R0e_UU-35">
          <mxGeometry x="0.0936" relative="1" as="geometry">
            <mxPoint as="offset" />
          </mxGeometry>
        </mxCell>
        <mxCell id="16fR_5s0LtTTg5R0e_UU-10" value="方法出口" style="rounded=0;whiteSpace=wrap;html=1;fillColor=#FFFFCC;" vertex="1" parent="1">
          <mxGeometry x="140" y="325" width="80" height="30" as="geometry" />
        </mxCell>
        <mxCell id="16fR_5s0LtTTg5R0e_UU-42" style="edgeStyle=orthogonalEdgeStyle;rounded=0;orthogonalLoop=1;jettySize=auto;html=1;exitX=1;exitY=0.5;exitDx=0;exitDy=0;entryX=0;entryY=0.5;entryDx=0;entryDy=0;curved=1;" edge="1" parent="1" source="16fR_5s0LtTTg5R0e_UU-11" target="16fR_5s0LtTTg5R0e_UU-40">
          <mxGeometry relative="1" as="geometry">
            <Array as="points">
              <mxPoint x="280" y="420" />
              <mxPoint x="280" y="480" />
            </Array>
          </mxGeometry>
        </mxCell>
        <mxCell id="16fR_5s0LtTTg5R0e_UU-11" value="局部变量表" style="rounded=0;whiteSpace=wrap;html=1;fillColor=#FFFFCC;" vertex="1" parent="1">
          <mxGeometry x="140" y="405" width="80" height="30" as="geometry" />
        </mxCell>
        <mxCell id="16fR_5s0LtTTg5R0e_UU-12" value="&lt;b&gt;......&lt;/b&gt;" style="rounded=0;whiteSpace=wrap;html=1;fillColor=#FFFFCC;" vertex="1" parent="1">
          <mxGeometry x="140" y="445" width="80" height="30" as="geometry" />
        </mxCell>
        <mxCell id="16fR_5s0LtTTg5R0e_UU-14" value="&lt;div&gt;&lt;br&gt;&lt;/div&gt;" style="rounded=0;whiteSpace=wrap;html=1;fillColor=#FFFFCC;" vertex="1" parent="1">
          <mxGeometry x="320" y="45" width="110" height="175" as="geometry" />
        </mxCell>
        <mxCell id="16fR_5s0LtTTg5R0e_UU-17" value="this" style="rounded=0;whiteSpace=wrap;html=1;fillColor=#FFFFCC;" vertex="1" parent="1">
          <mxGeometry x="335" y="55" width="80" height="30" as="geometry" />
        </mxCell>
        <mxCell id="16fR_5s0LtTTg5R0e_UU-18" value="numA = 1" style="rounded=0;whiteSpace=wrap;html=1;fillColor=#FFFFCC;" vertex="1" parent="1">
          <mxGeometry x="335" y="95" width="80" height="30" as="geometry" />
        </mxCell>
        <mxCell id="16fR_5s0LtTTg5R0e_UU-19" value="numB = 2" style="rounded=0;whiteSpace=wrap;html=1;fillColor=#FFFFCC;" vertex="1" parent="1">
          <mxGeometry x="335" y="135" width="80" height="30" as="geometry" />
        </mxCell>
        <mxCell id="16fR_5s0LtTTg5R0e_UU-20" value="res = ?" style="rounded=0;whiteSpace=wrap;html=1;fillColor=#FFFFCC;" vertex="1" parent="1">
          <mxGeometry x="335" y="175" width="80" height="30" as="geometry" />
        </mxCell>
        <mxCell id="16fR_5s0LtTTg5R0e_UU-22" value="&lt;div&gt;&lt;br&gt;&lt;/div&gt;" style="rounded=0;whiteSpace=wrap;html=1;fillColor=#FFFFCC;" vertex="1" parent="1">
          <mxGeometry x="320" y="230" width="110" height="135" as="geometry" />
        </mxCell>
        <mxCell id="16fR_5s0LtTTg5R0e_UU-26" value="(1+" style="rounded=0;whiteSpace=wrap;html=1;fillColor=#FFFFCC;" vertex="1" parent="1">
          <mxGeometry x="335" y="245" width="80" height="30" as="geometry" />
        </mxCell>
        <mxCell id="16fR_5s0LtTTg5R0e_UU-27" value="2)*" style="rounded=0;whiteSpace=wrap;html=1;fillColor=#FFFFCC;" vertex="1" parent="1">
          <mxGeometry x="335" y="285" width="80" height="30" as="geometry" />
        </mxCell>
        <mxCell id="16fR_5s0LtTTg5R0e_UU-28" value="10" style="rounded=0;whiteSpace=wrap;html=1;fillColor=#FFFFCC;" vertex="1" parent="1">
          <mxGeometry x="335" y="325" width="80" height="30" as="geometry" />
        </mxCell>
        <mxCell id="16fR_5s0LtTTg5R0e_UU-32" value="" style="endArrow=none;dashed=1;html=1;rounded=0;entryX=0.5;entryY=1;entryDx=0;entryDy=0;exitX=0.5;exitY=0;exitDx=0;exitDy=0;" edge="1" parent="1" source="16fR_5s0LtTTg5R0e_UU-26" target="16fR_5s0LtTTg5R0e_UU-20">
          <mxGeometry width="50" height="50" relative="1" as="geometry">
            <mxPoint x="320" y="270" as="sourcePoint" />
            <mxPoint x="370" y="220" as="targetPoint" />
          </mxGeometry>
        </mxCell>
        <mxCell id="16fR_5s0LtTTg5R0e_UU-33" value="" style="endArrow=none;dashed=1;html=1;rounded=0;entryX=0.5;entryY=1;entryDx=0;entryDy=0;exitX=0.5;exitY=0;exitDx=0;exitDy=0;" edge="1" parent="1" source="16fR_5s0LtTTg5R0e_UU-27" target="16fR_5s0LtTTg5R0e_UU-26">
          <mxGeometry width="50" height="50" relative="1" as="geometry">
            <mxPoint x="330" y="330" as="sourcePoint" />
            <mxPoint x="380" y="280" as="targetPoint" />
          </mxGeometry>
        </mxCell>
        <mxCell id="16fR_5s0LtTTg5R0e_UU-34" value="" style="endArrow=none;dashed=1;html=1;rounded=0;entryX=0.5;entryY=1;entryDx=0;entryDy=0;exitX=0.5;exitY=0;exitDx=0;exitDy=0;" edge="1" parent="1" source="16fR_5s0LtTTg5R0e_UU-28" target="16fR_5s0LtTTg5R0e_UU-27">
          <mxGeometry width="50" height="50" relative="1" as="geometry">
            <mxPoint x="385" y="295" as="sourcePoint" />
            <mxPoint x="385" y="285" as="targetPoint" />
          </mxGeometry>
        </mxCell>
        <mxCell id="16fR_5s0LtTTg5R0e_UU-37" value="在运行时将符号引用转换为直接引用" style="rounded=0;whiteSpace=wrap;html=1;fillColor=#FFFFCC;" vertex="1" parent="1">
          <mxGeometry x="320" y="375" width="110" height="65" as="geometry" />
        </mxCell>
        <mxCell id="16fR_5s0LtTTg5R0e_UU-40" value="&lt;div&gt;&lt;br&gt;&lt;/div&gt;" style="rounded=0;whiteSpace=wrap;html=1;fillColor=#FFFFCC;" vertex="1" parent="1">
          <mxGeometry x="320" y="450" width="110" height="60" as="geometry" />
        </mxCell>
        <mxCell id="16fR_5s0LtTTg5R0e_UU-45" style="edgeStyle=orthogonalEdgeStyle;rounded=0;orthogonalLoop=1;jettySize=auto;html=1;exitX=1;exitY=0.5;exitDx=0;exitDy=0;entryX=0;entryY=0.5;entryDx=0;entryDy=0;curved=1;" edge="1" parent="1" source="16fR_5s0LtTTg5R0e_UU-41" target="16fR_5s0LtTTg5R0e_UU-44">
          <mxGeometry relative="1" as="geometry">
            <Array as="points">
              <mxPoint x="450" y="480" />
              <mxPoint x="450" y="295" />
            </Array>
          </mxGeometry>
        </mxCell>
        <mxCell id="16fR_5s0LtTTg5R0e_UU-41" value="math" style="rounded=0;whiteSpace=wrap;html=1;fillColor=#FFFFCC;" vertex="1" parent="1">
          <mxGeometry x="335" y="465" width="80" height="30" as="geometry" />
        </mxCell>
        <mxCell id="16fR_5s0LtTTg5R0e_UU-44" value="new Math()" style="ellipse;whiteSpace=wrap;html=1;" vertex="1" parent="1">
          <mxGeometry x="505" y="272.5" width="90" height="45" as="geometry" />
        </mxCell>
        <mxCell id="16fR_5s0LtTTg5R0e_UU-46" value="String[]{&lt;b&gt;......&lt;/b&gt;}" style="ellipse;whiteSpace=wrap;html=1;" vertex="1" parent="1">
          <mxGeometry x="505" y="322.5" width="90" height="45" as="geometry" />
        </mxCell>
        <mxCell id="16fR_5s0LtTTg5R0e_UU-48" style="edgeStyle=orthogonalEdgeStyle;rounded=0;orthogonalLoop=1;jettySize=auto;html=1;exitX=0.5;exitY=1;exitDx=0;exitDy=0;entryX=0.5;entryY=0;entryDx=0;entryDy=0;" edge="1" parent="1" source="16fR_5s0LtTTg5R0e_UU-47" target="16fR_5s0LtTTg5R0e_UU-43">
          <mxGeometry relative="1" as="geometry" />
        </mxCell>
        <mxCell id="16fR_5s0LtTTg5R0e_UU-47" value="&lt;b&gt;A线程&lt;/b&gt;" style="rounded=0;whiteSpace=wrap;html=1;" vertex="1" parent="1">
          <mxGeometry x="460" y="100" width="180" height="105" as="geometry" />
        </mxCell>
        <mxCell id="16fR_5s0LtTTg5R0e_UU-50" style="edgeStyle=orthogonalEdgeStyle;rounded=0;orthogonalLoop=1;jettySize=auto;html=1;exitX=0.5;exitY=0;exitDx=0;exitDy=0;entryX=0.5;entryY=1;entryDx=0;entryDy=0;" edge="1" parent="1" source="16fR_5s0LtTTg5R0e_UU-49" target="16fR_5s0LtTTg5R0e_UU-43">
          <mxGeometry relative="1" as="geometry" />
        </mxCell>
        <mxCell id="16fR_5s0LtTTg5R0e_UU-49" value="&lt;b&gt;B线程&lt;/b&gt;" style="rounded=0;whiteSpace=wrap;html=1;" vertex="1" parent="1">
          <mxGeometry x="460" y="410" width="180" height="105" as="geometry" />
        </mxCell>
      </root>
    </mxGraphModel>
  </diagram>
</mxfile>
